<svg xmlns="http://www.w3.org/2000/svg" xmlns:xlink="http://www.w3.org/1999/xlink" width="346.021" height="258.034"><g id="SContent"><g transform="scale(1.33333)"><defs><clipPath id="CLIP0"><path d="M-0.5,-0.5 L0.5,-0.5 L0.5,0.5 L-0.5,0.5 Z"/></clipPath></defs><defs><clipPath id="CLIP1"><path d="M-0.5,-0.5 L0.5,-0.5 L0.5,1.5 L-0.5,1.5 Z"/></clipPath></defs><defs><clipPath id="CLIP2"><path d="M-0.5,-0.728315055 L152.5,-0.728315055 L152.5,50.271686554 L-0.5,50.271686554 Z"/></clipPath></defs><g clip-path="url(#CLIP2)" transform="matrix(1,0,0,1,54.00000381,72)"><g><defs><clipPath id="CLIP3"><path d="M0.25,37.394069672 L151.265655518,37.394069672 L151.265655518,49.275424957 L0.25,49.275424957 Z"/></clipPath></defs><g clip-path="url(#CLIP3)"><g><g><text x="1" y="-2.111" fill="#000" font-family="Arial" font-size="9.96" transform="matrix(1,0,0,1,1.05219209,48.55433655)">Sheet</text><text x="29.795" y="-2.111" fill="#000" font-family="Arial" font-size="9.96" transform="matrix(1,0,0,1,1.05219209,48.55433655)">2</text><text x="38.102" y="-2.111" fill="#000" font-family="Arial" font-size="9.96" transform="matrix(1,0,0,1,1.05219209,48.55433655)">Contents</text><text x="80.733" y="-2.111" fill="#000" font-family="Arial" font-size="9.96" transform="matrix(1,0,0,1,1.05219209,48.55433655)">go</text><text x="94.579" y="-2.111" fill="#000" font-family="Arial" font-size="9.96" transform="matrix(1,0,0,1,1.05219209,48.55433655)">here</text><text x="117.281" y="-2.111" fill="#000" font-family="Arial" font-size="9.96" transform="matrix(1,0,0,1,1.05219209,48.55433655)">…</text></g></g></g></g></g><text x="10" y="10" fill="red" font-family="Arial" font-size="10">Evaluation Only. Created with Aspose.Cells for Java. Copyright 2003 - 2016 Aspose Pty Ltd.</text></g></g></svg>